<?xml version="1.0" encoding="UTF-8" standalone="no"?>
<!DOCTYPE svg PUBLIC "-//W3C//DTD SVG 1.1//EN"
 "http://www.w3.org/Graphics/SVG/1.1/DTD/svg11.dtd">
<!-- Generated by graphviz version 2.43.0 (0)
 -->
<!-- Title: full_architecture Pages: 1 -->
<svg width="1318pt" height="157pt"
 viewBox="0.00 0.00 1318.00 157.00" xmlns="http://www.w3.org/2000/svg" xmlns:xlink="http://www.w3.org/1999/xlink">
<g id="graph0" class="graph" transform="scale(1 1) rotate(0) translate(4 153)">
<title>full_architecture</title>
<polygon fill="white" stroke="transparent" points="-4,4 -4,-153 1314,-153 1314,4 -4,4"/>
<g id="clust1" class="cluster">
<title>cluster_external</title>
<polygon fill="lightgray" stroke="black" points="8,-8 8,-141 161,-141 161,-8 8,-8"/>
<text text-anchor="middle" x="84.5" y="-125.8" font-family="Times,serif" font-size="14.00">External Clients</text>
</g>
<g id="clust2" class="cluster">
<title>cluster_service</title>
<polygon fill="orange" stroke="black" points="296,-38 296,-115 450,-115 450,-38 296,-38"/>
<text text-anchor="middle" x="373" y="-99.8" font-family="Times,serif" font-size="14.00">MCP Service Layer</text>
</g>
<g id="clust3" class="cluster">
<title>cluster_blender</title>
<polygon fill="lightcoral" stroke="black" points="593,-38 593,-115 1302,-115 1302,-38 593,-38"/>
<text text-anchor="middle" x="947.5" y="-99.8" font-family="Times,serif" font-size="14.00">Blender Environment</text>
</g>
<!-- python -->
<g id="node1" class="node">
<title>python</title>
<polygon fill="lightblue" stroke="black" points="151,-110 18,-110 18,-72 151,-72 151,-110"/>
<text text-anchor="middle" x="84.5" y="-94.8" font-family="Times,serif" font-size="14.00">External Python</text>
<text text-anchor="middle" x="84.5" y="-79.8" font-family="Times,serif" font-size="14.00">Control API</text>
</g>
<!-- mcp_server -->
<g id="node3" class="node">
<title>mcp_server</title>
<polygon fill="yellow" stroke="black" points="437,-84 309,-84 309,-46 437,-46 437,-84"/>
<text text-anchor="middle" x="373" y="-68.8" font-family="Times,serif" font-size="14.00">MCP/JSON&#45;TCP</text>
<text text-anchor="middle" x="373" y="-53.8" font-family="Times,serif" font-size="14.00">(port 6688)</text>
</g>
<!-- python&#45;&gt;mcp_server -->
<g id="edge1" class="edge">
<title>python&#45;&gt;mcp_server</title>
<path fill="none" stroke="black" d="M151.23,-85.04C195.16,-81.05 253,-75.8 298.46,-71.67"/>
<polygon fill="black" stroke="black" points="298.9,-75.15 308.55,-70.76 298.27,-68.18 298.9,-75.15"/>
<text text-anchor="middle" x="228.5" y="-85.8" font-family="Times,serif" font-size="14.00">TCP Connection</text>
</g>
<!-- llm -->
<g id="node2" class="node">
<title>llm</title>
<polygon fill="lightgreen" stroke="black" points="153,-54 16,-54 16,-16 153,-16 153,-54"/>
<text text-anchor="middle" x="84.5" y="-38.8" font-family="Times,serif" font-size="14.00">LLM</text>
<text text-anchor="middle" x="84.5" y="-23.8" font-family="Times,serif" font-size="14.00">(Claude/VSCode)</text>
</g>
<!-- llm&#45;&gt;mcp_server -->
<g id="edge2" class="edge">
<title>llm&#45;&gt;mcp_server</title>
<path fill="none" stroke="black" d="M153.31,-40.87C192.18,-44.37 241.87,-49.09 286,-54 290.12,-54.46 294.36,-54.95 298.63,-55.45"/>
<polygon fill="black" stroke="black" points="298.28,-58.93 308.62,-56.66 299.11,-51.98 298.28,-58.93"/>
<text text-anchor="middle" x="228.5" y="-57.8" font-family="Times,serif" font-size="14.00">MCP Protocol</text>
</g>
<!-- addon -->
<g id="node4" class="node">
<title>addon</title>
<polygon fill="pink" stroke="black" points="751,-84 601,-84 601,-46 751,-46 751,-84"/>
<text text-anchor="middle" x="676" y="-68.8" font-family="Times,serif" font-size="14.00">BLD_Remote_MCP</text>
<text text-anchor="middle" x="676" y="-53.8" font-family="Times,serif" font-size="14.00">(addon)</text>
</g>
<!-- mcp_server&#45;&gt;addon -->
<g id="edge3" class="edge">
<title>mcp_server&#45;&gt;addon</title>
<path fill="none" stroke="black" d="M437.1,-65C481.68,-65 541.92,-65 590.62,-65"/>
<polygon fill="black" stroke="black" points="590.83,-68.5 600.83,-65 590.83,-61.5 590.83,-68.5"/>
<text text-anchor="middle" x="521.5" y="-68.8" font-family="Times,serif" font-size="14.00">JSON Commands</text>
</g>
<!-- bpy -->
<g id="node5" class="node">
<title>bpy</title>
<polygon fill="lightyellow" stroke="black" points="1035,-83 878,-83 878,-47 1035,-47 1035,-83"/>
<text text-anchor="middle" x="956.5" y="-61.3" font-family="Times,serif" font-size="14.00">Blender Python API</text>
</g>
<!-- addon&#45;&gt;bpy -->
<g id="edge4" class="edge">
<title>addon&#45;&gt;bpy</title>
<path fill="none" stroke="black" d="M751.27,-65C786.91,-65 829.88,-65 867.19,-65"/>
<polygon fill="black" stroke="black" points="867.55,-68.5 877.55,-65 867.55,-61.5 867.55,-68.5"/>
<text text-anchor="middle" x="814.5" y="-68.8" font-family="Times,serif" font-size="14.00">Python Calls</text>
</g>
<!-- blender -->
<g id="node6" class="node">
<title>blender</title>
<polygon fill="white" stroke="black" points="1294,-84 1150,-84 1150,-46 1294,-46 1294,-84"/>
<text text-anchor="middle" x="1222" y="-68.8" font-family="Times,serif" font-size="14.00">Blender</text>
<text text-anchor="middle" x="1222" y="-53.8" font-family="Times,serif" font-size="14.00">(GUI/background)</text>
</g>
<!-- bpy&#45;&gt;blender -->
<g id="edge5" class="edge">
<title>bpy&#45;&gt;blender</title>
<path fill="none" stroke="black" d="M1035.13,-65C1068.01,-65 1106.34,-65 1139.62,-65"/>
<polygon fill="black" stroke="black" points="1139.77,-68.5 1149.77,-65 1139.77,-61.5 1139.77,-68.5"/>
<text text-anchor="middle" x="1092.5" y="-68.8" font-family="Times,serif" font-size="14.00">Operations</text>
</g>
</g>
</svg>
