<?xml version="1.0" encoding="UTF-8" standalone="no"?>
<!DOCTYPE svg PUBLIC "-//W3C//DTD SVG 1.1//EN"
 "http://www.w3.org/Graphics/SVG/1.1/DTD/svg11.dtd">
<!-- Generated by graphviz version 2.43.0 (0)
 -->
<!-- Title: architecture Pages: 1 -->
<svg width="249pt" height="341pt"
 viewBox="0.00 0.00 249.00 341.00" xmlns="http://www.w3.org/2000/svg" xmlns:xlink="http://www.w3.org/1999/xlink">
<g id="graph0" class="graph" transform="scale(1 1) rotate(0) translate(4 337)">
<title>architecture</title>
<polygon fill="white" stroke="transparent" points="-4,4 -4,-337 245,-337 245,4 -4,4"/>
<!-- llm -->
<g id="node1" class="node">
<title>llm</title>
<polygon fill="lightgreen" stroke="black" points="200,-333 0,-333 0,-295 200,-295 200,-333"/>
<text text-anchor="middle" x="100" y="-317.8" font-family="Times,serif" font-size="14.00">LLM IDE</text>
<text text-anchor="middle" x="100" y="-302.8" font-family="Times,serif" font-size="14.00">(VSCode/Claude Desktop)</text>
</g>
<!-- mcp -->
<g id="node2" class="node">
<title>mcp</title>
<polygon fill="orange" stroke="black" points="178.5,-229 21.5,-229 21.5,-191 178.5,-191 178.5,-229"/>
<text text-anchor="middle" x="100" y="-213.8" font-family="Times,serif" font-size="14.00">uvx blender&#45;remote</text>
<text text-anchor="middle" x="100" y="-198.8" font-family="Times,serif" font-size="14.00">(FastMCP Server)</text>
</g>
<!-- llm&#45;&gt;mcp -->
<g id="edge1" class="edge">
<title>llm&#45;&gt;mcp</title>
<path fill="none" stroke="black" d="M100,-294.76C100,-279.32 100,-256.91 100,-239.16"/>
<polygon fill="black" stroke="black" points="103.5,-239.08 100,-229.08 96.5,-239.08 103.5,-239.08"/>
<text text-anchor="middle" x="149.5" y="-265.8" font-family="Times,serif" font-size="14.00">MCP Protocol</text>
<text text-anchor="middle" x="149.5" y="-250.8" font-family="Times,serif" font-size="14.00">(stdio)</text>
</g>
<!-- addon -->
<g id="node3" class="node">
<title>addon</title>
<polygon fill="yellow" stroke="black" points="175,-125 25,-125 25,-87 175,-87 175,-125"/>
<text text-anchor="middle" x="100" y="-109.8" font-family="Times,serif" font-size="14.00">BLD_Remote_MCP</text>
<text text-anchor="middle" x="100" y="-94.8" font-family="Times,serif" font-size="14.00">(Blender Addon)</text>
</g>
<!-- mcp&#45;&gt;addon -->
<g id="edge2" class="edge">
<title>mcp&#45;&gt;addon</title>
<path fill="none" stroke="black" d="M100,-190.76C100,-175.32 100,-152.91 100,-135.16"/>
<polygon fill="black" stroke="black" points="103.5,-135.08 100,-125.08 96.5,-135.08 103.5,-135.08"/>
<text text-anchor="middle" x="141" y="-161.8" font-family="Times,serif" font-size="14.00">JSON&#45;TCP</text>
<text text-anchor="middle" x="141" y="-146.8" font-family="Times,serif" font-size="14.00">(port 6688)</text>
</g>
<!-- blender -->
<g id="node4" class="node">
<title>blender</title>
<polygon fill="lightcoral" stroke="black" points="179,-36 21,-36 21,0 179,0 179,-36"/>
<text text-anchor="middle" x="100" y="-14.3" font-family="Times,serif" font-size="14.00">Blender Application</text>
</g>
<!-- addon&#45;&gt;blender -->
<g id="edge3" class="edge">
<title>addon&#45;&gt;blender</title>
<path fill="none" stroke="black" d="M100,-86.76C100,-74.93 100,-59.32 100,-46.05"/>
<polygon fill="black" stroke="black" points="103.5,-46.04 100,-36.04 96.5,-46.04 103.5,-46.04"/>
<text text-anchor="middle" x="170.5" y="-57.8" font-family="Times,serif" font-size="14.00">Blender Python API</text>
</g>
</g>
</svg>
