<?xml version="1.0" encoding="UTF-8" standalone="no"?>
<!DOCTYPE svg PUBLIC "-//W3C//DTD SVG 1.1//EN"
 "http://www.w3.org/Graphics/SVG/1.1/DTD/svg11.dtd">
<!-- Generated by graphviz version 2.43.0 (0)
 -->
<!-- Title: system_architecture Pages: 1 -->
<svg width="492pt" height="700pt"
 viewBox="0.00 0.00 492.00 700.00" xmlns="http://www.w3.org/2000/svg" xmlns:xlink="http://www.w3.org/1999/xlink">
<g id="graph0" class="graph" transform="scale(1 1) rotate(0) translate(4 696)">
<title>system_architecture</title>
<polygon fill="white" stroke="transparent" points="-4,4 -4,-696 488,-696 488,4 -4,4"/>
<g id="clust1" class="cluster">
<title>cluster_llm</title>
<polygon fill="lightgreen" stroke="black" points="8,-607 8,-684 310,-684 310,-607 8,-607"/>
<text text-anchor="middle" x="159" y="-668.8" font-family="Times,serif" font-size="14.00">LLM IDE Layer</text>
</g>
<g id="clust2" class="cluster">
<title>cluster_mcp</title>
<polygon fill="orange" stroke="black" points="82,-368 82,-559 311,-559 311,-368 82,-368"/>
<text text-anchor="middle" x="196.5" y="-543.8" font-family="Times,serif" font-size="14.00">MCP Server Layer</text>
</g>
<g id="clust3" class="cluster">
<title>cluster_fastmcp</title>
<polygon fill="yellow" stroke="black" points="90,-376 90,-528 303,-528 303,-376 90,-376"/>
<text text-anchor="middle" x="196.5" y="-512.8" font-family="Times,serif" font-size="14.00">uvx blender&#45;remote</text>
</g>
<g id="clust4" class="cluster">
<title>cluster_blender_service</title>
<polygon fill="lightcoral" stroke="black" points="125,-131 125,-322 389,-322 389,-131 125,-131"/>
<text text-anchor="middle" x="257" y="-306.8" font-family="Times,serif" font-size="14.00">Blender Service Layer</text>
</g>
<g id="clust5" class="cluster">
<title>cluster_addon</title>
<polygon fill="pink" stroke="black" points="133,-139 133,-291 381,-291 381,-139 133,-139"/>
<text text-anchor="middle" x="257" y="-275.8" font-family="Times,serif" font-size="14.00">blender_addon/bld_remote_mcp/</text>
</g>
<g id="clust6" class="cluster">
<title>cluster_blender_app</title>
<polygon fill="lightgray" stroke="black" points="164,-8 164,-85 460,-85 460,-8 164,-8"/>
<text text-anchor="middle" x="312" y="-69.8" font-family="Times,serif" font-size="14.00">Blender Application</text>
</g>
<!-- vscode -->
<g id="node1" class="node">
<title>vscode</title>
<polygon fill="lightblue" stroke="black" points="125.5,-653 16.5,-653 16.5,-615 125.5,-615 125.5,-653"/>
<text text-anchor="middle" x="71" y="-637.8" font-family="Times,serif" font-size="14.00">VSCode</text>
<text text-anchor="middle" x="71" y="-622.8" font-family="Times,serif" font-size="14.00">(Claude Dev)</text>
</g>
<!-- fastmcp -->
<g id="node4" class="node">
<title>fastmcp</title>
<polygon fill="lightyellow" stroke="black" points="222,-497 140,-497 140,-459 222,-459 222,-497"/>
<text text-anchor="middle" x="181" y="-481.8" font-family="Times,serif" font-size="14.00">FastMCP</text>
<text text-anchor="middle" x="181" y="-466.8" font-family="Times,serif" font-size="14.00">Server</text>
</g>
<!-- vscode&#45;&gt;fastmcp -->
<g id="edge1" class="edge">
<title>vscode&#45;&gt;fastmcp</title>
<path fill="none" stroke="black" d="M69.42,-614.87C69,-600.99 70.21,-581.78 78,-567 92.09,-540.24 118.01,-518.17 140.32,-502.82"/>
<polygon fill="black" stroke="black" points="142.27,-505.72 148.66,-497.27 138.4,-499.89 142.27,-505.72"/>
<text text-anchor="middle" x="127.5" y="-585.8" font-family="Times,serif" font-size="14.00">MCP Protocol</text>
<text text-anchor="middle" x="127.5" y="-570.8" font-family="Times,serif" font-size="14.00">(stdio)</text>
</g>
<!-- claude -->
<g id="node2" class="node">
<title>claude</title>
<polygon fill="lightblue" stroke="black" points="218.5,-653 143.5,-653 143.5,-615 218.5,-615 218.5,-653"/>
<text text-anchor="middle" x="181" y="-637.8" font-family="Times,serif" font-size="14.00">Claude</text>
<text text-anchor="middle" x="181" y="-622.8" font-family="Times,serif" font-size="14.00">Desktop</text>
</g>
<!-- claude&#45;&gt;fastmcp -->
<g id="edge2" class="edge">
<title>claude&#45;&gt;fastmcp</title>
<path fill="none" stroke="black" d="M181,-614.73C181,-588.22 181,-538.83 181,-507.51"/>
<polygon fill="black" stroke="black" points="184.5,-507.25 181,-497.25 177.5,-507.25 184.5,-507.25"/>
<text text-anchor="middle" x="230.5" y="-585.8" font-family="Times,serif" font-size="14.00">MCP Protocol</text>
<text text-anchor="middle" x="230.5" y="-570.8" font-family="Times,serif" font-size="14.00">(stdio)</text>
</g>
<!-- cursor -->
<g id="node3" class="node">
<title>cursor</title>
<polygon fill="lightblue" stroke="black" points="301.5,-653 236.5,-653 236.5,-615 301.5,-615 301.5,-653"/>
<text text-anchor="middle" x="269" y="-637.8" font-family="Times,serif" font-size="14.00">Cursor</text>
<text text-anchor="middle" x="269" y="-622.8" font-family="Times,serif" font-size="14.00">(AI)</text>
</g>
<!-- cursor&#45;&gt;fastmcp -->
<g id="edge3" class="edge">
<title>cursor&#45;&gt;fastmcp</title>
<path fill="none" stroke="black" d="M277.85,-614.93C283.25,-601.25 287.91,-582.28 281,-567 268.81,-540.03 243.8,-518.02 221.85,-502.77"/>
<polygon fill="black" stroke="black" points="223.56,-499.7 213.31,-497.05 219.67,-505.52 223.56,-499.7"/>
<text text-anchor="middle" x="333.5" y="-585.8" font-family="Times,serif" font-size="14.00">MCP Protocol</text>
<text text-anchor="middle" x="333.5" y="-570.8" font-family="Times,serif" font-size="14.00">(stdio)</text>
</g>
<!-- tools -->
<g id="node5" class="node">
<title>tools</title>
<polygon fill="lightyellow" stroke="black" points="180,-422 98,-422 98,-384 180,-384 180,-422"/>
<text text-anchor="middle" x="139" y="-406.8" font-family="Times,serif" font-size="14.00">Tool</text>
<text text-anchor="middle" x="139" y="-391.8" font-family="Times,serif" font-size="14.00">Handlers</text>
</g>
<!-- fastmcp&#45;&gt;tools -->
<g id="edge4" class="edge">
<title>fastmcp&#45;&gt;tools</title>
<path fill="none" stroke="black" d="M170.62,-458.96C165.77,-450.53 159.9,-440.33 154.54,-431.01"/>
<polygon fill="black" stroke="black" points="157.43,-429.01 149.41,-422.09 151.36,-432.5 157.43,-429.01"/>
</g>
<!-- connection -->
<g id="node6" class="node">
<title>connection</title>
<polygon fill="lightyellow" stroke="black" points="295.5,-422 198.5,-422 198.5,-384 295.5,-384 295.5,-422"/>
<text text-anchor="middle" x="247" y="-406.8" font-family="Times,serif" font-size="14.00">Connection</text>
<text text-anchor="middle" x="247" y="-391.8" font-family="Times,serif" font-size="14.00">Manager</text>
</g>
<!-- fastmcp&#45;&gt;connection -->
<g id="edge5" class="edge">
<title>fastmcp&#45;&gt;connection</title>
<path fill="none" stroke="black" d="M197.31,-458.96C205.33,-450.09 215.12,-439.26 223.89,-429.56"/>
<polygon fill="black" stroke="black" points="226.53,-431.86 230.64,-422.09 221.34,-427.16 226.53,-431.86"/>
</g>
<!-- tcp_server -->
<g id="node7" class="node">
<title>tcp_server</title>
<polygon fill="white" stroke="black" points="279.5,-260 214.5,-260 214.5,-222 279.5,-222 279.5,-260"/>
<text text-anchor="middle" x="247" y="-244.8" font-family="Times,serif" font-size="14.00">TCP</text>
<text text-anchor="middle" x="247" y="-229.8" font-family="Times,serif" font-size="14.00">Server</text>
</g>
<!-- connection&#45;&gt;tcp_server -->
<g id="edge6" class="edge">
<title>connection&#45;&gt;tcp_server</title>
<path fill="none" stroke="black" d="M247,-383.96C247,-356.35 247,-303.37 247,-270.53"/>
<polygon fill="black" stroke="black" points="250.5,-270.22 247,-260.22 243.5,-270.22 250.5,-270.22"/>
<text text-anchor="middle" x="288" y="-348.8" font-family="Times,serif" font-size="14.00">JSON&#45;TCP</text>
<text text-anchor="middle" x="288" y="-333.8" font-family="Times,serif" font-size="14.00">(port 6688)</text>
</g>
<!-- cmd_handlers -->
<g id="node8" class="node">
<title>cmd_handlers</title>
<polygon fill="white" stroke="black" points="251.5,-185 162.5,-185 162.5,-147 251.5,-147 251.5,-185"/>
<text text-anchor="middle" x="207" y="-169.8" font-family="Times,serif" font-size="14.00">Command</text>
<text text-anchor="middle" x="207" y="-154.8" font-family="Times,serif" font-size="14.00">Handlers</text>
</g>
<!-- tcp_server&#45;&gt;cmd_handlers -->
<g id="edge7" class="edge">
<title>tcp_server&#45;&gt;cmd_handlers</title>
<path fill="none" stroke="black" d="M237.11,-221.96C232.5,-213.53 226.91,-203.33 221.8,-194.01"/>
<polygon fill="black" stroke="black" points="224.79,-192.18 216.91,-185.09 218.65,-195.54 224.79,-192.18"/>
</g>
<!-- scene_mgr -->
<g id="node9" class="node">
<title>scene_mgr</title>
<polygon fill="white" stroke="black" points="350,-185 270,-185 270,-147 350,-147 350,-185"/>
<text text-anchor="middle" x="310" y="-169.8" font-family="Times,serif" font-size="14.00">Scene</text>
<text text-anchor="middle" x="310" y="-154.8" font-family="Times,serif" font-size="14.00">Manager</text>
</g>
<!-- tcp_server&#45;&gt;scene_mgr -->
<g id="edge8" class="edge">
<title>tcp_server&#45;&gt;scene_mgr</title>
<path fill="none" stroke="black" d="M262.57,-221.96C270.15,-213.18 279.38,-202.48 287.69,-192.85"/>
<polygon fill="black" stroke="black" points="290.5,-194.95 294.39,-185.09 285.2,-190.37 290.5,-194.95"/>
</g>
<!-- scene_app -->
<g id="node10" class="node">
<title>scene_app</title>
<polygon fill="white" stroke="black" points="252,-54 172,-54 172,-16 252,-16 252,-54"/>
<text text-anchor="middle" x="212" y="-38.8" font-family="Times,serif" font-size="14.00">Scene</text>
<text text-anchor="middle" x="212" y="-23.8" font-family="Times,serif" font-size="14.00">Manager</text>
</g>
<!-- cmd_handlers&#45;&gt;scene_app -->
<g id="edge9" class="edge">
<title>cmd_handlers&#45;&gt;scene_app</title>
<path fill="none" stroke="black" d="M207.71,-146.79C208.54,-125.28 209.94,-89.25 210.91,-64.14"/>
<polygon fill="black" stroke="black" points="214.41,-64.24 211.3,-54.12 207.41,-63.97 214.41,-64.24"/>
<text text-anchor="middle" x="250" y="-111.8" font-family="Times,serif" font-size="14.00">Blender</text>
<text text-anchor="middle" x="250" y="-96.8" font-family="Times,serif" font-size="14.00">Python API</text>
</g>
<!-- objects -->
<g id="node11" class="node">
<title>objects</title>
<polygon fill="white" stroke="black" points="350,-54 270,-54 270,-16 350,-16 350,-54"/>
<text text-anchor="middle" x="310" y="-38.8" font-family="Times,serif" font-size="14.00">Objects</text>
<text text-anchor="middle" x="310" y="-23.8" font-family="Times,serif" font-size="14.00">Manager</text>
</g>
<!-- scene_mgr&#45;&gt;objects -->
<g id="edge10" class="edge">
<title>scene_mgr&#45;&gt;objects</title>
<path fill="none" stroke="black" d="M310,-146.79C310,-125.28 310,-89.25 310,-64.14"/>
<polygon fill="black" stroke="black" points="313.5,-64.12 310,-54.12 306.5,-64.12 313.5,-64.12"/>
<text text-anchor="middle" x="350" y="-111.8" font-family="Times,serif" font-size="14.00">Blender</text>
<text text-anchor="middle" x="350" y="-96.8" font-family="Times,serif" font-size="14.00">Python API</text>
</g>
<!-- viewport -->
<g id="node12" class="node">
<title>viewport</title>
<polygon fill="white" stroke="black" points="451.5,-54 368.5,-54 368.5,-16 451.5,-16 451.5,-54"/>
<text text-anchor="middle" x="410" y="-38.8" font-family="Times,serif" font-size="14.00">Viewport</text>
<text text-anchor="middle" x="410" y="-23.8" font-family="Times,serif" font-size="14.00">Renderer</text>
</g>
<!-- scene_mgr&#45;&gt;viewport -->
<g id="edge11" class="edge">
<title>scene_mgr&#45;&gt;viewport</title>
<path fill="none" stroke="black" d="M350.32,-152.37C365.15,-145.82 380.79,-136.33 391,-123 403.81,-106.28 408.37,-82.71 409.83,-64.32"/>
<polygon fill="black" stroke="black" points="413.33,-64.35 410.37,-54.18 406.34,-63.98 413.33,-64.35"/>
<text text-anchor="middle" x="444" y="-111.8" font-family="Times,serif" font-size="14.00">Blender</text>
<text text-anchor="middle" x="444" y="-96.8" font-family="Times,serif" font-size="14.00">Python API</text>
</g>
</g>
</svg>
